<svg id="color_line" height="512" viewBox="0 0 74 74" width="512" xmlns="http://www.w3.org/2000/svg" data-name="color line"><path d="m2 20.247v45.468a4.111 4.111 0 0 0 4.111 4.11h59.778a4.111 4.111 0 0 0 4.111-4.11v-45.468z" fill="#eeefee"/><path d="m8 26.247h18.917v37.579h-18.917z" fill="#89c5cd"/><path d="m23.125 26.25h3.795v37.58h-3.795z" fill="#6eaaad"/><path d="m70 7.5a3.327 3.327 0 0 0 -3.328-3.327h-61.344a3.327 3.327 0 0 0 -3.328 3.327v12.747h68z" fill="#9297ab"/><path d="m70 20.25v45.46a4.118 4.118 0 0 1 -4.11 4.12h-4a4.118 4.118 0 0 0 4.11-4.12v-45.46z" fill="#e1e6e9"/><path d="m70 7.5v12.75h-4v-9.37a3.329 3.329 0 0 0 -3.33-3.33h-60.67v-.05a3.329 3.329 0 0 1 3.33-3.33h61.34a3.329 3.329 0 0 1 3.33 3.33z" fill="#84879c"/><circle cx="62.067" cy="12.211" fill="#fe7058" r="2.195"/><path d="m62.067 14.905a2.694 2.694 0 1 1 2.694-2.694 2.7 2.7 0 0 1 -2.694 2.694zm0-4.388a1.694 1.694 0 1 0 1.694 1.694 1.7 1.7 0 0 0 -1.694-1.694z" fill="#323c6b"/><circle cx="53.309" cy="12.211" fill="#fcd462" r="2.195"/><path d="m53.309 14.905a2.694 2.694 0 1 1 2.691-2.694 2.7 2.7 0 0 1 -2.691 2.694zm0-4.388a1.694 1.694 0 1 0 1.691 1.694 1.7 1.7 0 0 0 -1.691-1.694z" fill="#323c6b"/><circle cx="44.552" cy="12.211" fill="#27ccbc" r="2.195"/><g fill="#323c6b"><path d="m44.552 14.905a2.694 2.694 0 1 1 2.694-2.694 2.7 2.7 0 0 1 -2.694 2.694zm0-4.388a1.694 1.694 0 1 0 1.694 1.694 1.7 1.7 0 0 0 -1.694-1.694z"/><path d="m35.382 12.711h-26.335a.5.5 0 0 1 0-1h26.335a.5.5 0 0 1 0 1z"/><path d="m63.067 30.333h-17.984a.5.5 0 0 1 0-1h17.984a.5.5 0 1 1 0 1z"/><path d="m40.667 30.333h-6.042a.5.5 0 0 1 0-1h6.042a.5.5 0 0 1 0 1z"/><path d="m63.067 40.469h-7.984a.5.5 0 0 1 0-1h7.984a.5.5 0 0 1 0 1z"/><path d="m50.75 40.469h-16.125a.5.5 0 0 1 0-1h16.125a.5.5 0 0 1 0 1z"/><path d="m63.067 50.6h-13.734a.5.5 0 0 1 0-1h13.734a.5.5 0 0 1 0 1z"/><path d="m45.083 50.6h-10.458a.5.5 0 0 1 0-1h10.458a.5.5 0 0 1 0 1z"/><path d="m63.067 60.739h-3.942a.5.5 0 0 1 0-1h3.942a.5.5 0 0 1 0 1z"/><path d="m55.333 60.739h-20.708a.5.5 0 0 1 0-1h20.708a.5.5 0 0 1 0 1z"/><path d="m68.617 72.782a.5.5 0 0 1 -.192-.962 6.6 6.6 0 0 0 4.075-6.106v-1.256a.5.5 0 0 1 1 0v1.256a7.6 7.6 0 0 1 -4.69 7.029.486.486 0 0 1 -.193.039z"/><path d="m73 62.375a.5.5 0 0 1 -.5-.5v-.5a.5.5 0 0 1 1 0v.5a.5.5 0 0 1 -.5.5z"/><path d="m43.781 1.674h-10.906a.5.5 0 0 1 0-1h10.906a.5.5 0 1 1 0 1z"/><path d="m46.5 1.674h-.6a.5.5 0 0 1 0-1h.6a.5.5 0 1 1 0 1z"/><path d="m65.889 70.326h-59.778a4.616 4.616 0 0 1 -4.611-4.612v-45.467a.5.5 0 0 1 .5-.5h68a.5.5 0 0 1 .5.5v45.467a4.616 4.616 0 0 1 -4.611 4.612zm-63.389-49.579v44.967a3.615 3.615 0 0 0 3.611 3.612h59.778a3.615 3.615 0 0 0 3.611-3.612v-44.967z"/><path d="m70 20.747h-68a.5.5 0 0 1 -.5-.5v-12.747a3.833 3.833 0 0 1 3.828-3.826h61.344a3.833 3.833 0 0 1 3.828 3.826v12.747a.5.5 0 0 1 -.5.5zm-67.5-1h67v-12.247a2.832 2.832 0 0 0 -2.828-2.828h-61.344a2.832 2.832 0 0 0 -2.828 2.828z"/><path d="m26.917 64.326h-18.917a.5.5 0 0 1 -.5-.5v-37.579a.5.5 0 0 1 .5-.5h18.917a.5.5 0 0 1 .5.5v37.579a.5.5 0 0 1 -.5.5zm-18.417-1h17.917v-36.579h-17.917z"/></g><path d="m21.7 28.693h.281a.775.775 0 0 1 0 1.55h-.281a.775.775 0 1 1 0-1.55z" fill="#fff"/><path d="m11 28.693h8.26a.775.775 0 0 1 0 1.55h-8.26a.775.775 0 0 1 0-1.55z" fill="#fff"/></svg>